# Blender v2.92.0 OBJ File: 'untitled.blend'
# www.blender.org
mtllib TURPIT.mtl
o Cylinder
v 0.109129 0.528816 -0.120710
v 0.327153 1.575873 -0.120710
v 0.190231 0.511928 -0.015217
v 0.408255 1.558985 -0.015217
v 0.140864 0.522208 0.105494
v 0.358888 1.569265 0.105494
v 0.010395 0.549375 0.120710
v 0.228419 1.596432 0.120710
v -0.070707 0.566262 0.015217
v 0.147317 1.613319 0.015217
v -0.021340 0.555983 -0.105494
v 0.196684 1.603040 -0.105494
v -0.132803 0.447788 -0.122797
v -0.010844 1.868108 -0.124407
v -0.047939 0.456483 -0.017315
v 0.074020 1.876802 -0.018925
v -0.099675 0.450633 0.103406
v 0.022284 1.870952 0.101796
v -0.236275 0.436089 0.118644
v -0.114316 1.856408 0.117034
v -0.321139 0.427394 0.013163
v -0.199180 1.847713 0.011552
v -0.269403 0.433244 -0.107558
v -0.147444 1.853563 -0.109168
v -0.117253 0.413159 0.018155
v 0.112082 1.492686 0.158140
v -0.065659 0.379083 0.082341
v 0.163677 1.458610 0.222327
v -0.099235 0.358656 0.158914
v 0.130100 1.438183 0.298900
v -0.184406 0.372304 0.171302
v 0.044930 1.451831 0.311287
v -0.236000 0.406379 0.107115
v -0.006664 1.485907 0.247101
v -0.202424 0.426807 0.030542
v 0.026912 1.506334 0.170528
v -0.155389 0.322208 -0.116236
v 0.178202 1.903108 -0.365996
v -0.100954 0.342513 -0.042382
v 0.232637 1.923413 -0.292142
v -0.133970 0.386340 0.040382
v 0.199622 1.967240 -0.209377
v -0.221420 0.409862 0.049292
v 0.112171 1.990762 -0.200468
v -0.275855 0.389556 -0.024563
v 0.057736 1.970456 -0.274322
v -0.242840 0.345730 -0.107327
v 0.090752 1.926630 -0.357087
v -0.023825 0.403073 -0.121552
v 0.305294 1.377435 -0.380157
v 0.037752 0.416657 -0.057834
v 0.366870 1.391020 -0.316439
v 0.023342 0.480054 0.012631
v 0.352461 1.454417 -0.245975
v -0.052643 0.529866 0.019377
v 0.276475 1.504229 -0.239228
v -0.114219 0.516281 -0.044341
v 0.214899 1.490644 -0.302946
v -0.099810 0.452885 -0.114805
v 0.229308 1.427248 -0.373411
v -0.000000 0.863791 -0.000000
v 0.228731 0.869572 -0.272591
v 0.430986 0.612737 -0.513629
v 0.599788 0.168266 -0.714800
v 0.531234 -0.321298 -0.633100
v 0.071897 -0.625145 -0.085684
v 0.350436 0.869572 -0.061792
v 0.660309 0.612737 -0.116430
v 0.918929 0.168266 -0.162032
v 0.813897 -0.321298 -0.143512
v 0.110153 -0.625145 -0.019423
v 0.308169 0.869572 0.177921
v 0.580666 0.612737 0.335247
v 0.808093 0.168266 0.466552
v 0.715729 -0.321298 0.413226
v 0.096867 -0.625145 0.055926
v 0.121705 0.869572 0.334382
v 0.229323 0.612737 0.630059
v 0.319141 0.168265 0.876832
v 0.282664 -0.321298 0.776612
v 0.038256 -0.625145 0.105106
v 0.000000 -1.262184 -0.000000
v -0.121705 0.869572 0.334382
v -0.229323 0.612737 0.630059
v -0.319141 0.168266 0.876832
v -0.282664 -0.321297 0.776612
v -0.038256 -0.625145 0.105106
v -0.308169 0.869572 0.177921
v -0.580666 0.612737 0.335248
v -0.808093 0.168266 0.466552
v -0.715729 -0.321298 0.413227
v -0.096867 -0.625145 0.055926
v -0.350436 0.869572 -0.061792
v -0.660309 0.612737 -0.116430
v -0.918929 0.168265 -0.162032
v -0.813897 -0.321298 -0.143512
v -0.110153 -0.625145 -0.019423
v -0.228731 0.869572 -0.272591
v -0.430986 0.612737 -0.513629
v -0.599788 0.168265 -0.714800
v -0.531234 -0.321298 -0.633100
v -0.071897 -0.625145 -0.085684
v -0.000000 0.869572 -0.355843
v -0.000000 0.612737 -0.670496
v -0.000000 0.168266 -0.933105
v -0.000000 -0.321298 -0.826453
v -0.000000 -0.625145 -0.111852
v 0.405780 -0.473221 -0.483590
v 0.621690 -0.473221 -0.109621
v 0.546705 -0.473221 0.315640
v 0.215911 -0.473221 0.593210
v -0.215911 -0.473221 0.593210
v -0.546705 -0.473221 0.315640
v -0.621691 -0.473221 -0.109621
v -0.405780 -0.473221 -0.483589
v -0.000000 -0.473221 -0.631281
vt 1.000000 0.500000
vt 1.000000 1.000000
vt 0.833333 1.000000
vt 0.833333 0.500000
vt 0.666667 1.000000
vt 0.666667 0.500000
vt 0.500000 1.000000
vt 0.500000 0.500000
vt 0.333333 1.000000
vt 0.333333 0.500000
vt 0.427400 0.790228
vt 0.469952 0.765590
vt 0.512503 0.790173
vt 0.512503 0.839396
vt 0.469952 0.864034
vt 0.427400 0.839450
vt 0.166667 1.000000
vt 0.166667 0.500000
vt -0.000000 1.000000
vt -0.000000 0.500000
vt 0.750000 0.490000
vt 0.957846 0.370000
vt 0.957846 0.130000
vt 0.750000 0.010000
vt 0.542154 0.130000
vt 0.542154 0.370000
vt 1.000000 0.500000
vt 1.000000 1.000000
vt 0.833333 1.000000
vt 0.833333 0.500000
vt 0.666667 1.000000
vt 0.666667 0.500000
vt 0.500000 1.000000
vt 0.500000 0.500000
vt 0.333333 1.000000
vt 0.333333 0.500000
vt 0.597359 0.790372
vt 0.597359 0.839561
vt 0.554931 0.863968
vt 0.512503 0.839186
vt 0.512503 0.789997
vt 0.554931 0.765590
vt 0.166667 1.000000
vt 0.166667 0.500000
vt -0.000000 1.000000
vt -0.000000 0.500000
vt 0.750000 0.490000
vt 0.957846 0.370000
vt 0.957846 0.130000
vt 0.750000 0.010000
vt 0.542154 0.130000
vt 0.542154 0.370000
vt 1.000000 0.500000
vt 1.000000 1.000000
vt 0.833333 1.000000
vt 0.833333 0.500000
vt 0.666667 1.000000
vt 0.666667 0.500000
vt 0.500000 1.000000
vt 0.500000 0.500000
vt 0.333333 1.000000
vt 0.333333 0.500000
vt 0.688161 0.813530
vt 0.688161 0.782342
vt 0.715411 0.765590
vt 0.742661 0.780027
vt 0.742661 0.811215
vt 0.715411 0.827967
vt 0.166667 1.000000
vt 0.166667 0.500000
vt -0.000000 1.000000
vt -0.000000 0.500000
vt 0.750000 0.490000
vt 0.957846 0.370000
vt 0.957846 0.130000
vt 0.750000 0.010000
vt 0.542154 0.130000
vt 0.542154 0.370000
vt 1.000000 0.500000
vt 1.000000 1.000000
vt 0.833333 1.000000
vt 0.833333 0.500000
vt 0.666667 1.000000
vt 0.666667 0.500000
vt 0.500000 1.000000
vt 0.500000 0.500000
vt 0.333333 1.000000
vt 0.333333 0.500000
vt 0.688161 0.817723
vt 0.659965 0.834874
vt 0.631770 0.817383
vt 0.631770 0.782741
vt 0.659965 0.765590
vt 0.688161 0.783081
vt 0.166667 1.000000
vt 0.166667 0.500000
vt -0.000000 1.000000
vt -0.000000 0.500000
vt 0.750000 0.490000
vt 0.957846 0.370000
vt 0.957846 0.130000
vt 0.750000 0.010000
vt 0.542154 0.130000
vt 0.542154 0.370000
vt 1.000000 0.500000
vt 1.000000 1.000000
vt 0.833333 1.000000
vt 0.833333 0.500000
vt 0.666667 1.000000
vt 0.666667 0.500000
vt 0.500000 1.000000
vt 0.500000 0.500000
vt 0.333333 1.000000
vt 0.333333 0.500000
vt 0.839094 0.308266
vt 0.864789 0.326967
vt 0.864789 0.357441
vt 0.839094 0.369213
vt 0.813398 0.350513
vt 0.813398 0.320039
vt 0.166667 1.000000
vt 0.166667 0.500000
vt -0.000000 1.000000
vt -0.000000 0.500000
vt 0.750000 0.490000
vt 0.957846 0.370000
vt 0.957846 0.130000
vt 0.750000 0.010000
vt 0.542154 0.130000
vt 0.542154 0.370000
vt 0.800602 0.673707
vt 0.850571 0.691962
vt 0.832513 0.810393
vt 0.786809 0.764170
vt 0.721741 0.323197
vt 0.622302 0.232980
vt 0.688164 0.126237
vt 0.813398 0.174647
vt 0.546645 0.151717
vt 0.507809 0.088646
vt 0.581599 0.095067
vt 0.411786 0.629606
vt 0.395572 0.453506
vt 0.411786 0.453511
vt 0.987203 0.701937
vt 0.966816 0.835652
vt 0.396151 0.629606
vt 0.396151 0.806450
vt 0.375264 0.805212
vt 0.863367 0.009975
vt 1.000000 0.000000
vt 1.000000 0.174552
vt 0.863367 0.164576
vt 0.581599 0.035149
vt 0.688164 0.013337
vt 0.813399 0.028230
vt 0.813399 0.146321
vt 0.813398 0.017528
vt 0.359409 0.801825
vt 0.979613 0.308266
vt 0.845310 0.283008
vt 0.661970 0.755528
vt 0.551881 0.765590
vt 0.532388 0.711310
vt 0.625240 0.653252
vt 0.326784 0.046906
vt 0.375916 0.026234
vt 0.427400 0.157526
vt 0.366110 0.147193
vt 0.786809 0.711027
vt 0.735694 0.568693
vt 0.546645 0.000000
vt 0.416992 0.747301
vt 0.396151 0.631466
vt 0.416992 0.629606
vt 0.786809 0.497905
vt 0.606781 0.451007
vt 0.672631 0.393671
vt 0.483227 0.666431
vt 0.532608 0.568687
vt 0.375791 0.297270
vt 0.326688 0.253936
vt 0.493092 0.006066
vt 0.427400 0.360013
vt 0.279998 0.453506
vt 0.245237 0.380076
vt 0.427401 0.651950
vt 0.427418 0.541403
vt 0.226965 0.317187
vt 0.460391 0.413036
vt 0.445999 0.050509
vt 0.149730 0.085180
vt 0.211389 0.162860
vt 0.193720 0.174067
vt 0.000017 0.677693
vt 0.000000 0.567146
vt 0.055826 0.552665
vt 0.105208 0.650409
vt 0.096825 0.367201
vt 0.113602 0.307352
vt 0.032991 0.806060
vt 0.179381 0.768089
vt 0.427400 0.112534
vt 0.631770 0.765590
vt 0.631770 0.894050
vt 0.617833 0.882457
vt 0.112435 0.438969
vt 0.000000 0.264667
vt 0.039643 0.229032
vt 0.197839 0.565844
vt 0.308293 0.650403
vt 0.445999 0.163118
vt 0.597359 0.878142
vt 0.245231 0.825425
vt 0.359409 0.721191
vt 0.104987 0.507786
vt 0.786809 0.465153
vt 0.832513 0.418930
vt 0.850571 0.537361
vt 0.800602 0.555616
vt 0.234569 0.463568
vt 0.359409 0.508070
vt 0.493092 0.178593
vt 0.359409 0.461481
vt 0.374887 0.456654
vt 0.966816 0.393671
vt 0.987203 0.527385
vt 0.124480 0.453506
vt 0.581313 0.393671
vt 0.521396 0.283620
vt 0.160539 0.138929
vt 0.039693 0.118874
vt 0.113731 0.028422
vt 0.173657 0.122903
vt 0.160530 0.158447
vt 0.173634 0.172324
vt 0.218374 0.143947
vt 0.211406 0.126178
vt 0.193746 0.117867
vt 0.227112 0.000000
vn 0.7700 -0.1603 -0.6176
vn 0.9033 -0.1881 0.3855
vn 0.1111 -0.0231 0.9935
vn -0.7700 0.1603 0.6176
vn 0.2039 0.9790 0.0000
vn -0.9033 0.1881 -0.3855
vn -0.1111 0.0231 -0.9935
vn -0.2039 -0.9790 -0.0000
vn 0.7801 -0.0677 -0.6220
vn 0.9177 -0.0784 0.3895
vn 0.1118 -0.0085 0.9937
vn -0.7801 0.0677 0.6220
vn -0.1056 0.9944 0.0030
vn -0.9177 0.0784 -0.3895
vn -0.1118 0.0085 -0.9937
vn 0.1056 -0.9944 -0.0030
vn 0.7569 -0.0766 -0.6491
vn 0.9114 -0.2372 0.3363
vn 0.1183 -0.1524 0.9812
vn -0.7569 0.0766 0.6491
vn 0.1961 0.9226 0.3321
vn -0.9114 0.2372 -0.3363
vn -0.1183 0.1524 -0.9812
vn -0.1961 -0.9226 -0.3321
vn 0.8106 -0.2544 -0.5275
vn 0.8978 -0.1226 0.4231
vn 0.1343 0.1269 0.9828
vn -0.8106 0.2544 0.5275
vn 0.2010 0.8966 -0.3946
vn -0.8978 0.1226 -0.4231
vn -0.1343 -0.1269 -0.9828
vn -0.2010 -0.8966 0.3946
vn 0.7014 -0.3945 -0.5937
vn 0.9051 -0.2071 0.3714
vn 0.2067 0.1852 0.9607
vn -0.7014 0.3945 0.5937
vn 0.4197 0.7158 -0.5582
vn -0.9051 0.2071 -0.3714
vn -0.2067 -0.1852 -0.9607
vn -0.4197 -0.7158 0.5582
vn 0.2182 -0.7701 -0.5995
vn 0.2990 0.4854 -0.8216
vn -0.0059 0.9999 0.0162
vn 0.3375 -0.1628 -0.9272
vn 0.3351 -0.2006 -0.9206
vn 0.2243 0.7550 -0.6162
vn 0.8545 -0.1628 -0.4933
vn 0.8484 -0.2006 -0.4898
vn 0.5679 0.7550 -0.3279
vn 0.5525 -0.7701 -0.3190
vn 0.7572 0.4854 -0.4371
vn -0.0150 0.9999 0.0086
vn 0.9717 -0.1628 0.1713
vn 0.9648 -0.2006 0.1701
vn 0.6458 0.7550 0.1139
vn 0.6282 -0.7701 0.1108
vn 0.8610 0.4854 0.1518
vn -0.0170 0.9999 -0.0030
vn 0.6342 -0.1628 0.7558
vn 0.6297 -0.2006 0.7505
vn 0.4215 0.7550 0.5024
vn 0.4100 -0.7701 0.4887
vn 0.5620 0.4854 0.6697
vn -0.0111 0.9999 -0.0132
vn 0.0000 -0.2006 0.9797
vn 0.0000 0.7550 0.6558
vn -0.0000 -0.7701 0.6379
vn 0.0000 0.4854 0.8743
vn -0.0000 0.9999 -0.0173
vn 0.0000 -0.1628 0.9867
vn -0.4215 0.7550 0.5024
vn -0.4100 -0.7701 0.4887
vn -0.5620 0.4854 0.6697
vn 0.0111 0.9999 -0.0132
vn -0.6342 -0.1628 0.7558
vn -0.6297 -0.2006 0.7505
vn -0.6282 -0.7701 0.1108
vn -0.8610 0.4854 0.1518
vn 0.0170 0.9999 -0.0030
vn -0.9717 -0.1628 0.1713
vn -0.9648 -0.2006 0.1701
vn -0.6458 0.7550 0.1139
vn -0.5525 -0.7701 -0.3190
vn -0.7572 0.4854 -0.4371
vn 0.0150 0.9999 0.0086
vn -0.8545 -0.1628 -0.4933
vn -0.8484 -0.2006 -0.4898
vn -0.5679 0.7550 -0.3279
vn -0.2182 -0.7701 -0.5995
vn -0.2990 0.4854 -0.8216
vn 0.0059 0.9999 0.0162
vn -0.3375 -0.1628 -0.9272
vn -0.3351 -0.2006 -0.9206
vn -0.2243 0.7550 -0.6162
vn -0.1016 -0.9548 -0.2793
vn -0.2574 -0.9548 -0.1486
vn -0.2927 -0.9548 0.0516
vn -0.1910 -0.9548 0.2277
vn -0.0000 -0.9548 0.2972
vn 0.1910 -0.9548 0.2277
vn 0.2927 -0.9548 0.0516
vn 0.2574 -0.9548 -0.1486
vn 0.1016 -0.9548 -0.2793
g Cylinder_Cylinder_Material.001
usemtl Material.001
s off
f 1/1/1 2/2/1 4/3/1 3/4/1
f 3/4/2 4/3/2 6/5/2 5/6/2
f 5/6/3 6/5/3 8/7/3 7/8/3
f 7/8/4 8/7/4 10/9/4 9/10/4
f 4/11/5 2/12/5 12/13/5 10/14/5 8/15/5 6/16/5
f 9/10/6 10/9/6 12/17/6 11/18/6
f 11/18/7 12/17/7 2/19/7 1/20/7
f 1/21/8 3/22/8 5/23/8 7/24/8 9/25/8 11/26/8
f 13/27/9 14/28/9 16/29/9 15/30/9
f 15/30/10 16/29/10 18/31/10 17/32/10
f 17/32/11 18/31/11 20/33/11 19/34/11
f 19/34/12 20/33/12 22/35/12 21/36/12
f 16/37/13 14/38/13 24/39/13 22/40/13 20/41/13 18/42/13
f 21/36/14 22/35/14 24/43/14 23/44/14
f 23/44/15 24/43/15 14/45/15 13/46/15
f 13/47/16 15/48/16 17/49/16 19/50/16 21/51/16 23/52/16
f 25/53/17 26/54/17 28/55/17 27/56/17
f 27/56/18 28/55/18 30/57/18 29/58/18
f 29/58/19 30/57/19 32/59/19 31/60/19
f 31/60/20 32/59/20 34/61/20 33/62/20
f 28/63/21 26/64/21 36/65/21 34/66/21 32/67/21 30/68/21
f 33/62/22 34/61/22 36/69/22 35/70/22
f 35/70/23 36/69/23 26/71/23 25/72/23
f 25/73/24 27/74/24 29/75/24 31/76/24 33/77/24 35/78/24
f 37/79/25 38/80/25 40/81/25 39/82/25
f 39/82/26 40/81/26 42/83/26 41/84/26
f 41/84/27 42/83/27 44/85/27 43/86/27
f 43/86/28 44/85/28 46/87/28 45/88/28
f 40/89/29 38/90/29 48/91/29 46/92/29 44/93/29 42/94/29
f 45/88/30 46/87/30 48/95/30 47/96/30
f 47/96/31 48/95/31 38/97/31 37/98/31
f 37/99/32 39/100/32 41/101/32 43/102/32 45/103/32 47/104/32
f 49/105/33 50/106/33 52/107/33 51/108/33
f 51/108/34 52/107/34 54/109/34 53/110/34
f 53/110/35 54/109/35 56/111/35 55/112/35
f 55/112/36 56/111/36 58/113/36 57/114/36
f 52/115/37 50/116/37 60/117/37 58/118/37 56/119/37 54/120/37
f 57/114/38 58/113/38 60/121/38 59/122/38
f 59/122/39 60/121/39 50/123/39 49/124/39
f 49/125/40 51/126/40 53/127/40 55/128/40 57/129/40 59/130/40
g Cylinder_Cylinder_Material.002
usemtl Material.002
f 116/131/41 106/132/41 65/133/41 108/134/41
f 105/135/42 104/136/42 63/137/42 64/138/42
f 103/139/43 61/140/43 62/141/43
f 82/142/44 107/143/44 66/144/44
f 106/132/45 105/145/45 64/146/45 65/133/45
f 104/136/46 103/139/46 62/141/46 63/137/46
f 82/147/47 66/148/47 71/149/47
f 65/150/48 64/151/48 69/152/48 70/153/48
f 63/137/49 62/141/49 67/154/49 68/155/49
f 108/156/50 65/150/50 70/153/50 109/157/50
f 64/138/51 63/137/51 68/155/51 69/158/51
f 62/141/52 61/140/52 67/154/52
f 82/147/53 71/149/53 76/159/53
f 70/153/54 69/152/54 74/160/54 75/161/54
f 68/162/55 67/163/55 72/164/55 73/165/55
f 109/166/56 70/167/56 75/168/56 110/169/56
f 69/170/57 68/162/57 73/165/57 74/171/57
f 67/154/58 61/140/58 72/172/58
f 82/173/59 76/174/59 81/175/59
f 75/176/60 74/171/60 79/177/60 80/178/60
f 73/165/61 72/164/61 77/179/61 78/180/61
f 110/169/62 75/168/62 80/181/62 111/182/62
f 74/171/63 73/165/63 78/180/63 79/177/63
f 72/172/64 61/140/64 77/183/64
f 80/181/65 79/184/65 85/185/65 86/186/65
f 78/180/66 77/179/66 83/187/66 84/188/66
f 111/182/67 80/181/67 86/186/67 112/189/67
f 79/177/68 78/180/68 84/188/68 85/190/68
f 77/183/69 61/140/69 83/191/69
f 82/192/70 81/193/70 87/194/70
f 84/195/71 83/196/71 88/197/71 89/198/71
f 112/189/72 86/186/72 91/199/72 113/200/72
f 85/201/73 84/195/73 89/198/73 90/202/73
f 83/191/74 61/140/74 88/203/74
f 82/204/75 87/205/75 92/206/75
f 86/186/76 85/185/76 90/207/76 91/199/76
f 113/200/77 91/199/77 96/208/77 114/209/77
f 90/202/78 89/198/78 94/210/78 95/211/78
f 88/203/79 61/140/79 93/212/79
f 82/204/80 92/206/80 97/213/80
f 91/214/81 90/202/81 95/211/81 96/215/81
f 89/198/82 88/197/82 93/216/82 94/210/82
f 114/217/83 96/218/83 101/219/83 115/220/83
f 95/211/84 94/210/84 99/221/84 100/222/84
f 93/212/85 61/140/85 98/223/85
f 82/142/86 97/224/86 102/225/86
f 96/218/87 95/226/87 100/227/87 101/219/87
f 94/210/88 93/216/88 98/228/88 99/221/88
f 115/220/89 101/219/89 106/132/89 116/131/89
f 100/229/90 99/230/90 104/136/90 105/135/90
f 98/223/91 61/140/91 103/139/91
f 82/142/92 102/225/92 107/143/92
f 101/219/93 100/227/93 105/145/93 106/132/93
f 99/230/94 98/223/94 103/139/94 104/136/94
f 102/231/95 115/232/95 116/233/95 107/234/95
f 97/235/96 114/209/96 115/232/96 102/231/96
f 92/236/97 113/200/97 114/209/97 97/235/97
f 87/194/98 112/189/98 113/200/98 92/236/98
f 81/193/99 111/182/99 112/189/99 87/194/99
f 76/237/100 110/169/100 111/182/100 81/193/100
f 71/238/101 109/166/101 110/169/101 76/237/101
f 66/239/102 108/240/102 109/166/102 71/238/102
f 107/234/103 116/233/103 108/240/103 66/239/103
